<svg xmlns="http://www.w3.org/2000/svg" xmlns:xlink="http://www.w3.org/1999/xlink" width="48" height="48" viewBox="0 0 48 48"><defs><symbol id="a" viewBox="0 0 48 48"><path d="M40,0H8A8,8,0,0,0,0,8V40a8,8,0,0,0,8,8H40a8,8,0,0,0,8-8V8A8,8,0,0,0,40,0Zm5.332,40A5.332,5.332,0,0,1,40,45.333H8A5.332,5.332,0,0,1,2.667,40V8A5.337,5.337,0,0,1,8,2.667H40A5.337,5.337,0,0,1,45.333,8Z" style="fill:#4d4d4d;fill-rule:evenodd"/><rect x="10" y="22.526" width="28" height="2.947" rx="1.474" style="fill:#333"/><path d="M25.474,11.474V36.526A1.478,1.478,0,0,1,24,38h0a1.478,1.478,0,0,1-1.474-1.474V11.474A1.478,1.478,0,0,1,24,10h0A1.478,1.478,0,0,1,25.474,11.474Z" style="fill:#333"/></symbol></defs><title>add-box1画板 1</title><use width="48" height="48" xlink:href="#a"/></svg>