<svg xmlns="http://www.w3.org/2000/svg" xmlns:xlink="http://www.w3.org/1999/xlink" width="48" height="48" viewBox="0 0 48 48"><defs><symbol id="a" viewBox="0 0 48 48"><path d="M40,0H8A8,8,0,0,0,0,8V40a8,8,0,0,0,8,8H40a8,8,0,0,0,8-8V8A8,8,0,0,0,40,0Zm5.332,40A5.332,5.332,0,0,1,40,45.333H8A5.332,5.332,0,0,1,2.667,40V8A5.337,5.337,0,0,1,8,2.667H40A5.337,5.337,0,0,1,45.333,8Z" style="fill:#4d4d4d;fill-rule:evenodd"/><rect x="5" y="22" width="38" height="4" rx="2" style="fill:#333"/><path d="M26,7V41a2.006,2.006,0,0,1-2,2h0a2.006,2.006,0,0,1-2-2V7a2.006,2.006,0,0,1,2-2h0A2.006,2.006,0,0,1,26,7Z" style="fill:#333"/></symbol></defs><title>delete-box画板 1</title><use width="48" height="48" xlink:href="#a"/></svg>