<svg xmlns="http://www.w3.org/2000/svg" xmlns:xlink="http://www.w3.org/1999/xlink" width="48" height="48" viewBox="0 0 48 48"><defs><symbol id="a" viewBox="0 0 48 48"><path d="M40,0H8A8,8,0,0,0,0,8V40a8,8,0,0,0,8,8H40a8,8,0,0,0,8-8V8A8,8,0,0,0,40,0Zm5.332,40A5.332,5.332,0,0,1,40,45.333H8A5.332,5.332,0,0,1,2.667,40V8A5.337,5.337,0,0,1,8,2.667H40A5.337,5.337,0,0,1,45.333,8Z" style="fill:#4d4d4d;fill-rule:evenodd"/><path d="M34.607,37.435,10.565,13.393a2.005,2.005,0,0,1,0-2.828h0a2.005,2.005,0,0,1,2.828,0L37.435,34.607a2.005,2.005,0,0,1,0,2.828h0A2.005,2.005,0,0,1,34.607,37.435Z" style="fill:#333"/><path d="M37.435,13.393,13.393,37.435a2.005,2.005,0,0,1-2.828,0h0a2.005,2.005,0,0,1,0-2.828L34.607,10.565a2.005,2.005,0,0,1,2.828,0h0A2.005,2.005,0,0,1,37.435,13.393Z" style="fill:#333"/></symbol></defs><title>delete-box画板 1</title><use width="48" height="48" xlink:href="#a"/></svg>