<svg xmlns="http://www.w3.org/2000/svg" xmlns:xlink="http://www.w3.org/1999/xlink" width="48" height="48" viewBox="0 0 48 48"><defs><symbol id="a" viewBox="0 0 48 48.001"><path d="M10,0H38A10,10,0,0,1,48,10V38A10,10,0,0,1,38,48H10A10,10,0,0,1,0,38V10A10,10,0,0,1,10,0Z" style="fill:gray"/><polygon points="11.594 24 24.277 12.359 24.277 20.004 34.523 20.004 34.523 27.999 24.277 27.999 24.277 35.642 11.594 24" style="fill:#1a1a1a"/><path d="M24.027,12.928v7.326H34.273v7.495H24.027v7.324L11.964,24,24.027,12.928m.5-1.138L11.225,24l13.3,12.211V28.249H34.773V19.754H24.527V11.79Z" style="fill:#15272a"/></symbol></defs><title>画板 1</title><use width="48" height="48.001" xlink:href="#a"/></svg>