<svg xmlns="http://www.w3.org/2000/svg" xlink="http://www.w3.org/1999/xlink" width="0" height="0" style="display:none;"><symbol viewBox="0 0 48 48" id="lsharp-add-box"><defs><symbol id="a" viewBox="0 0 48 48"><path d="M40,0H8A8,8,0,0,0,0,8V40a8,8,0,0,0,8,8H40a8,8,0,0,0,8-8V8A8,8,0,0,0,40,0Zm5.332,40A5.332,5.332,0,0,1,40,45.333H8A5.332,5.332,0,0,1,2.667,40V8A5.337,5.337,0,0,1,8,2.667H40A5.337,5.337,0,0,1,45.333,8Z" style="fill:#4d4d4d;fill-rule:evenodd"/><rect x="5" y="22" width="38" height="4" rx="2" style="fill:#333"/><path d="M26,7V41a2.006,2.006,0,0,1-2,2h0a2.006,2.006,0,0,1-2-2V7a2.006,2.006,0,0,1,2-2h0A2.006,2.006,0,0,1,26,7Z" style="fill:#333"/></symbol></defs><title>delete-box&#x753B;&#x677F; 1</title><use width="48" height="48" href="#a"/></symbol><symbol viewBox="0 0 48 48" id="lsharp-add-box1"><defs><symbol id="a" viewBox="0 0 48 48"><path d="M40,0H8A8,8,0,0,0,0,8V40a8,8,0,0,0,8,8H40a8,8,0,0,0,8-8V8A8,8,0,0,0,40,0Zm5.332,40A5.332,5.332,0,0,1,40,45.333H8A5.332,5.332,0,0,1,2.667,40V8A5.337,5.337,0,0,1,8,2.667H40A5.337,5.337,0,0,1,45.333,8Z" style="fill:#4d4d4d;fill-rule:evenodd"/><rect x="10" y="22.526" width="28" height="2.947" rx="1.474" style="fill:#333"/><path d="M25.474,11.474V36.526A1.478,1.478,0,0,1,24,38h0a1.478,1.478,0,0,1-1.474-1.474V11.474A1.478,1.478,0,0,1,24,10h0A1.478,1.478,0,0,1,25.474,11.474Z" style="fill:#333"/></symbol></defs><title>add-box1&#x753B;&#x677F; 1</title><use width="48" height="48" href="#a"/></symbol><symbol viewBox="0 0 48 48" id="lsharp-add-round"><title>add&#x753B;&#x677F; 1</title><rect x="2" y="21.794" width="44" height="4.413" rx="2.206" transform="translate(0 48) rotate(-90)" style="fill:#4d4d4d"/><rect x="2" y="21.794" width="44" height="4.413" rx="2.206" style="fill:#4d4d4d"/></symbol><symbol viewBox="0 0 42 42" id="lsharp-add"><title>add</title><polygon points="42 18 24 18 24 0 18 0 18 18 0 18 0 24 18 24 18 42 24 42 24 24 42 24 42 18"/></symbol><symbol viewBox="0 0 48 48" id="lsharp-delete-box"><defs><symbol id="a" viewBox="0 0 48 48"><path d="M40,0H8A8,8,0,0,0,0,8V40a8,8,0,0,0,8,8H40a8,8,0,0,0,8-8V8A8,8,0,0,0,40,0Zm5.332,40A5.332,5.332,0,0,1,40,45.333H8A5.332,5.332,0,0,1,2.667,40V8A5.337,5.337,0,0,1,8,2.667H40A5.337,5.337,0,0,1,45.333,8Z" style="fill:#4d4d4d;fill-rule:evenodd"/><path d="M34.607,37.435,10.565,13.393a2.005,2.005,0,0,1,0-2.828h0a2.005,2.005,0,0,1,2.828,0L37.435,34.607a2.005,2.005,0,0,1,0,2.828h0A2.005,2.005,0,0,1,34.607,37.435Z" style="fill:#333"/><path d="M37.435,13.393,13.393,37.435a2.005,2.005,0,0,1-2.828,0h0a2.005,2.005,0,0,1,0-2.828L34.607,10.565a2.005,2.005,0,0,1,2.828,0h0A2.005,2.005,0,0,1,37.435,13.393Z" style="fill:#333"/></symbol></defs><title>delete-box&#x753B;&#x677F; 1</title><use width="48" height="48" href="#a"/></symbol><symbol viewBox="0 0 48 48" id="lsharp-delete-round"><title>x1&#x753B;&#x677F; 1</title><rect x="-0.5" y="21.543" width="49" height="4.914" rx="2.457" transform="translate(-9.941 24) rotate(-45)" style="fill:#4d4d4d"/><rect x="-0.5" y="21.543" width="49" height="4.914" rx="2.457" transform="translate(24 -9.941) rotate(45)" style="fill:#4d4d4d"/></symbol><symbol viewBox="0 0 33.941 33.941" id="lsharp-delete"><title>delete</title><polygon points="29.698 0 16.971 12.728 4.243 0 0 4.243 12.728 16.971 0 29.698 4.243 33.941 16.971 21.213 29.698 33.941 33.941 29.698 21.213 16.971 33.941 4.243 29.698 0"/></symbol><symbol viewBox="0 0 48 48" id="lsharp-larrow"><defs><symbol id="a" viewBox="0 0 46.286 46"><polygon points="0.378 22.999 25.897 0.553 25.897 15.251 46.035 15.251 46.035 30.753 25.897 30.753 25.897 45.447 0.378 22.999" style="fill:#1a1a1a"/><path d="M25.647,1.106V15.5H45.786v15H25.647V44.894L.757,23,25.647,1.106M26.147,0,0,23,26.147,46V31H46.286V15H26.147V0Z" style="fill:#15272a"/></symbol></defs><title>x&#x753B;&#x677F; 1</title><use width="46.286" height="46" transform="translate(0.856 1)" href="#a"/></symbol><symbol viewBox="0 0 48 48" id="lsharp-larrow1"><defs><symbol id="a" viewBox="0 0 48 48.001"><path d="M10,0H38A10,10,0,0,1,48,10V38A10,10,0,0,1,38,48H10A10,10,0,0,1,0,38V10A10,10,0,0,1,10,0Z" style="fill:gray"/><polygon points="11.594 24 24.277 12.359 24.277 20.004 34.523 20.004 34.523 27.999 24.277 27.999 24.277 35.642 11.594 24" style="fill:#1a1a1a"/><path d="M24.027,12.928v7.326H34.273v7.495H24.027v7.324L11.964,24,24.027,12.928m.5-1.138L11.225,24l13.3,12.211V28.249H34.773V19.754H24.527V11.79Z" style="fill:#15272a"/></symbol></defs><title>&#x753B;&#x677F; 1</title><use width="48" height="48.001" href="#a"/></symbol><symbol viewBox="0 0 31.455 31.455" id="lsharp-light-add"><title>light-add</title><polygon points="31.455 15.097 16.358 15.097 16.358 0 15.097 0 15.097 15.097 0 15.097 0 16.358 15.097 16.358 15.097 31.455 16.358 31.455 16.358 16.358 31.455 16.358 31.455 15.097"/></symbol><symbol viewBox="0 0 23.133 23.133" id="lsharp-light-delete"><title>light-delete</title><polygon points="22.242 0 11.567 10.675 0.892 0 0 0.892 10.675 11.567 0 22.242 0.892 23.133 11.567 12.458 22.242 23.133 23.133 22.242 12.458 11.567 23.133 0.892 22.242 0"/></symbol><symbol viewBox="0 0 32.871 22.041" id="lsharp-light-ok"><title>light-ok</title><polygon points="32.022 0 11.68 20.342 0.85 9.512 0 10.361 10.83 21.192 11.68 22.041 12.529 21.191 32.871 0.85 32.022 0"/></symbol><symbol viewBox="0 0 48 48" id="lsharp-menu-icon"><defs><symbol id="a" viewBox="0 0 38 33"><rect y="29" width="38" height="4" rx="2" style="fill:#333"/><rect y="14" width="38" height="4" rx="2" style="fill:#333"/><rect width="38" height="4" rx="2" style="fill:#333"/></symbol></defs><title>menu-icon3&#x753B;&#x677F; 1</title><use width="38" height="33" transform="translate(2 7) scale(1.158 1)" href="#a"/></symbol><symbol viewBox="0 0 48 48" id="lsharp-menu-icon1"><defs><symbol id="a" viewBox="0 0 38 25"><rect y="21" width="38" height="4" rx="2" style="fill:#333"/><rect y="10" width="38" height="4" rx="2" style="fill:#333"/><rect width="38" height="4" rx="2" style="fill:#333"/></symbol></defs><title>menu-icon1&#x753B;&#x677F; 1</title><use width="38" height="25" transform="translate(5 9) scale(1 1.2)" href="#a"/></symbol><symbol viewBox="0 0 33.263 25.313" id="lsharp-ok"><title>ok</title><polyline points="10.197 25.313 33.263 2.55 30.713 0 10.198 20.134 2.55 12.486 0 15.036"/><path d="M16.971,21.213" transform="translate(-0.339 -4.314)"/></symbol><symbol viewBox="0 0 40.919 47.249" id="lsharp-play"><title>play</title><polygon points="0 0 0 47.249 40.919 23.624 0 0"/></symbol><symbol id="lsharp-right">
<path fill-rule="evenodd" stroke="rgb(0, 0, 0)" stroke-width="0px" stroke-linecap="round" stroke-linejoin="round" fill="rgb(0, 0, 0)" d="M-0.010,47.992 L16.232,24.001 L-0.010,0.008 L13.767,0.008 L30.010,24.001 L13.767,47.992 L-0.010,47.992 Z"/>
</symbol><symbol id="lsharp-right1">
<path fill-rule="evenodd" stroke="rgb(0, 0, 0)" stroke-width="0px" stroke-linecap="round" stroke-linejoin="round" fill="rgb(0, 0, 0)" d="M-0.010,47.992 L16.232,24.001 L-0.010,0.008 L10.000,-0.000 L26.000,24.000 L10.000,48.000 L-0.010,47.992 Z"/>
</symbol><symbol id="lsharp-right2">
<path fill-rule="evenodd" stroke="rgb(0, 0, 0)" stroke-width="0px" stroke-linecap="round" stroke-linejoin="round" fill="rgb(0, 0, 0)" d="M-0.010,47.992 L16.232,24.001 L-0.010,0.008 L6.000,-0.000 L22.000,24.000 L6.000,48.000 L-0.010,47.992 Z"/>
</symbol><symbol viewBox="0 0 47.249 40.919" id="lsharp-s3"><title>triangle</title><polygon points="23.624 0 0 40.919 47.249 40.919 23.624 0"/></symbol><symbol viewBox="0 0 46.92 42.434" id="lsharp-s31"><title>triangle2</title><path d="M18.126,6.175,1.459,35.042A6.783,6.783,0,0,0,7.333,45.217H40.667a6.783,6.783,0,0,0,5.874-10.175L29.874,6.175A6.783,6.783,0,0,0,18.126,6.175Z" transform="translate(-0.54 -2.783)"/></symbol><symbol viewBox="0 0 45.026 42.822" id="lsharp-s5"><title>5side</title><polygon points="22.513 0 0 16.357 8.599 42.822 36.426 42.822 45.026 16.357 22.513 0"/></symbol><symbol viewBox="0 0 47.343 41" id="lsharp-s6"><title>6side</title><polygon points="35.507 0 11.836 0 0 20.5 11.836 41 35.507 41 47.343 20.5 35.507 0"/></symbol><symbol viewBox="0 0 48 48" id="lsharp-s8"><title>8side</title><polygon points="33.941 0 14.059 0 0 14.059 0 33.941 14.059 48 33.941 48 48 33.941 48 14.059 33.941 0"/></symbol></svg>